<svg width="51" height="50" viewBox="0 0 51 50" fill="none" xmlns="http://www.w3.org/2000/svg">
<g id="Group 11">
<path id="Vector" d="M25.7309 50C39.4428 50 50.5585 38.8071 50.5585 25C50.5585 11.1929 39.4428 0 25.7309 0C12.019 0 0.90332 11.1929 0.90332 25C0.90332 38.8071 12.019 50 25.7309 50Z" fill="#00ADFE"/>
<path id="Vector_2" opacity="0.3" d="M25.7307 45C36.7002 45 45.5928 36.0457 45.5928 25C45.5928 13.9543 36.7002 5 25.7307 5C14.7612 5 5.86865 13.9543 5.86865 25C5.86865 36.0457 14.7612 45 25.7307 45Z" fill="#356CB6"/>
<path id="Vector_3" d="M25.7307 50C32.1401 50.0071 38.3022 47.5096 42.9196 43.0334C42.5058 33.6875 41.2893 19.9125 37.6851 11.7084C35.6865 7.15837 31.0024 4.1167 25.7307 4.1167C20.4589 4.1167 15.5307 7.03336 13.7762 11.7084C10.6603 19.9709 9.32376 33.8875 8.76514 43.2334C13.3563 47.5851 19.4254 50.0057 25.7307 50Z" fill="#393C54"/>
<path id="Vector_4" d="M34.0606 13.3874C32.6041 9.85404 29.7241 8.0457 25.8924 7.9707H25.5696C21.7379 8.06237 18.8579 9.8707 17.4013 13.3874C15.8993 17.0165 15.4027 22.4582 17.4013 29.7165C19.342 36.7999 21.7627 38.254 25.5696 38.329H25.8924C29.6993 38.254 32.0993 36.779 34.0606 29.7165C36.0758 22.4582 35.5627 17.0165 34.0606 13.3874Z" fill="white"/>
<path id="Vector_5" d="M31.3501 20.3457H33.1749" stroke="#393C54" stroke-width="2.58281" stroke-miterlimit="10" stroke-linecap="round"/>
<path id="Vector_6" d="M27.5931 35C26.3584 35.1833 25.1037 35.1833 23.869 35C23.3517 34.8625 22.8345 34.5333 22.8345 33.9583C22.8345 33.3833 23.331 33.0708 23.869 32.9167C25.0949 32.6375 26.3672 32.6375 27.5931 32.9167C28.0938 33.0458 28.6276 33.3833 28.6276 33.9583C28.6276 34.5333 28.1021 34.8667 27.5931 35Z" fill="#393C54"/>
<path id="Vector_7" d="M33.2001 22.5458C32.412 22.7311 31.587 22.6775 30.8291 22.3916" stroke="#393C54" stroke-width="1.03594" stroke-miterlimit="10" stroke-linecap="round"/>
<path id="Vector_8" d="M30.4565 25.4167C30.4936 25.0792 30.6529 24.7673 30.9041 24.5408C31.1553 24.3142 31.4807 24.189 31.8179 24.189C32.1551 24.189 32.4805 24.3142 32.7317 24.5408C32.9829 24.7673 33.1423 25.0792 33.1793 25.4167C33.1793 26.1792 31.8096 31.3876 30.8993 31.3876C30.4565 31.3709 30.4565 26.1626 30.4565 25.4167Z" fill="#A7AECE"/>
<path id="Vector_9" d="M30.4355 17.0833C30.4355 17.4496 30.5801 17.8009 30.8373 18.06C31.0946 18.319 31.4435 18.4645 31.8073 18.4645C32.1711 18.4645 32.52 18.319 32.7772 18.06C33.0345 17.8009 33.179 17.4496 33.179 17.0833C33.179 16.325 32.1073 12.95 31.3542 12.95C30.6011 12.95 30.4355 16.3291 30.4355 17.0833Z" fill="#A7AECE"/>
<path id="Vector_10" d="M18.2866 20.3457H20.1114" stroke="#393C54" stroke-width="2.58281" stroke-miterlimit="10" stroke-linecap="round"/>
<path id="Vector_11" d="M20.633 22.3999C19.8486 22.6877 18.9961 22.7298 18.1875 22.5207" stroke="#393C54" stroke-width="1.03594" stroke-miterlimit="10" stroke-linecap="round"/>
<path id="Vector_12" d="M21.0262 17.0833C21.0262 17.4496 20.8816 17.8009 20.6244 18.06C20.3671 18.319 20.0182 18.4645 19.6544 18.4645C19.2906 18.4645 18.9417 18.319 18.6845 18.06C18.4272 17.8009 18.2827 17.4496 18.2827 17.0833C18.2827 16.325 19.3544 12.95 20.1075 12.95C20.8606 12.95 21.0262 16.3291 21.0262 17.0833Z" fill="#A7AECE"/>
<path id="Vector_13" d="M21.0055 25.4167C20.9685 25.0792 20.8091 24.7673 20.5579 24.5408C20.3067 24.3142 19.9813 24.189 19.6441 24.189C19.3069 24.189 18.9815 24.3142 18.7303 24.5408C18.4791 24.7673 18.3197 25.0792 18.2827 25.4167C18.2827 26.1792 19.6524 31.3876 20.5627 31.3876C21.0055 31.3709 21.0055 26.1626 21.0055 25.4167Z" fill="#A7AECE"/>
<path id="Vector_14" d="M27.5559 35.9667C27.5559 36.4751 26.7283 36.8876 25.7311 36.8876C24.7338 36.8876 23.9062 36.4709 23.9062 35.9667C23.9062 35.7084 24.7338 35.8542 25.7311 35.8542C26.7283 35.8542 27.5559 35.7084 27.5559 35.9667Z" fill="#A7AECE"/>
<path id="Vector_15" opacity="0.2" d="M34.0603 13.3875C33.631 12.3135 33.0018 11.332 32.2065 10.4958C32.8065 14.7958 32.4672 20.3458 31.6438 27.9375C30.7789 35.8958 26.9141 37.6458 22.9541 37.9375C23.8051 38.2019 24.6911 38.3339 25.5817 38.3292H25.9044C29.7113 38.2542 32.1113 36.7792 34.0727 29.7167C36.0755 22.4583 35.5624 17.0167 34.0603 13.3875Z" fill="#393C54"/>
</g>
</svg>
