<svg width="60" height="46" viewBox="0 0 60 46" fill="none" xmlns="http://www.w3.org/2000/svg">
<path fill-rule="evenodd" clip-rule="evenodd" d="M24.2831 1.50742C16.8337 4.6493 9.38875 13.0055 9.35688 18.2612C9.35125 19.1105 7.83375 23.4905 0.863125 42.7724L0 45.1605L17.3319 44.9599C36.7638 44.7355 37.7244 44.543 42.9606 39.8118C54.7287 29.1805 45.095 8.13805 29.9469 11.3868C17.4406 14.0693 16.7319 32.9062 29.085 34.298C36.9619 35.1862 40.455 27.1593 34.5269 21.7943C33.3763 20.753 33.2537 20.7818 31.6375 22.4687C29.9506 24.2293 29.9506 24.2312 31.2125 25.373C34.0387 27.9305 31.9369 30.9393 28.4381 29.3449C24.4969 27.5493 23.7669 21.7812 27.0637 18.4843C35.43 10.118 48.4081 23.8868 41.6325 33.9412C31.1956 49.428 7.18625 33.1412 15.1994 16.0099C20.6638 4.32742 34.9269 1.3668 46.5431 9.50367L50.1069 12.0005L54.7288 8.5218C59.8238 4.6868 59.8738 4.59805 58.14 2.48555C56.8288 0.887422 57.0525 0.825546 52.5537 4.0318L50.0675 5.80367L44.6531 3.12055C37.6 -0.374453 30.145 -0.965078 24.2831 1.50742ZM9.97563 31.498C9.97563 31.7299 9.285 33.7537 8.44125 35.9955L6.90688 40.0724H16.4438L15.1494 38.6662C14.4381 37.893 12.9825 35.8687 11.9156 34.1687C10.8488 32.4687 9.97563 31.2668 9.97563 31.498Z" fill="#9747FF"/>
</svg>
