<svg width="33" height="34" viewBox="0 0 33 34" fill="none" xmlns="http://www.w3.org/2000/svg">
<g clip-path="url(#clip0_119_1053)">
<path d="M11.7323 2.05275C8.58239 3.17991 5.86593 5.31931 3.98191 8.15669C2.09789 10.9941 1.1456 14.3799 1.26493 17.8168C1.38427 21.2537 2.56892 24.5606 4.6449 27.2517C6.72087 29.9428 9.57874 31.8762 12.7987 32.7681C15.4092 33.4629 18.1443 33.4934 20.7688 32.857C23.1463 32.3061 25.3443 31.1278 27.1477 29.4374C29.0247 27.6243 30.3871 25.3178 31.0884 22.7659C31.8505 19.9907 31.9861 17.0724 31.485 14.2347H16.8256V20.5073H25.3153C25.1457 21.5078 24.7821 22.4626 24.2463 23.3147C23.7105 24.1669 23.0136 24.8987 22.1973 25.4665C21.1607 26.1741 19.992 26.6501 18.7664 26.8638C17.5373 27.0996 16.2765 27.0996 15.0474 26.8638C13.8015 26.5984 12.623 26.068 11.587 25.3065C9.92239 24.091 8.67252 22.3643 8.01572 20.3727C7.34799 18.3438 7.34799 16.1442 8.01572 14.1153C8.48324 12.6931 9.25613 11.3983 10.2767 10.3273C11.4446 9.07928 12.9232 8.18716 14.5502 7.74887C16.1773 7.31057 17.89 7.34302 19.5004 7.84267C20.7584 8.24084 21.9088 8.93684 22.8598 9.87512C23.817 8.89277 24.7727 7.90788 25.7266 6.92045C26.2192 6.38948 26.7561 5.8839 27.2413 5.34023C25.7895 3.94678 24.0855 2.86243 22.2268 2.14929C18.842 0.881523 15.1384 0.847453 11.7323 2.05275Z" fill="white"/>
<path d="M11.7322 2.05276C15.1381 0.846648 18.8417 0.879821 22.2267 2.14676C24.0857 2.86475 25.789 3.95432 27.2388 5.35294C26.7462 5.89662 26.2265 6.40473 25.7241 6.93317C24.7685 7.91721 23.8137 8.89787 22.8597 9.87513C21.9088 8.93685 20.7583 8.24085 19.5003 7.84269C17.8904 7.34129 16.1778 7.30696 14.5503 7.74346C12.9228 8.17997 11.4433 9.07044 10.2741 10.3172C9.25359 11.3881 8.48071 12.683 8.01318 14.1052L2.90753 10.0276C4.73504 6.28929 7.89927 3.4298 11.7322 2.05276Z" fill="#E33629"/>
<path d="M1.55302 14.067C1.82724 12.664 2.28284 11.3054 2.90763 10.0275L8.01328 14.1153C7.34555 16.1442 7.34555 18.3437 8.01328 20.3727C6.31221 21.7276 4.61033 23.0894 2.90763 24.4579C1.34404 21.2474 0.867171 17.5895 1.55302 14.067Z" fill="#F8BD00"/>
<path d="M16.8255 14.2322H31.4849C31.9861 17.0698 31.8504 19.9882 31.0883 22.7634C30.387 25.3153 29.0246 27.6218 27.1477 29.4349C25.5 28.1087 23.8449 26.7927 22.1972 25.4665C23.0141 24.8981 23.7113 24.1655 24.2471 23.3125C24.7829 22.4594 25.1462 21.5036 25.3152 20.5023H16.8255C16.8231 18.4139 16.8255 16.3231 16.8255 14.2322Z" fill="#587DBD"/>
<path d="M2.90506 24.4579C4.60776 23.1029 6.30965 21.7412 8.01071 20.3727C8.66882 22.365 9.92048 24.0918 11.5869 25.3064C12.6261 26.0645 13.8072 26.5905 15.0547 26.8511C16.2838 27.0869 17.5446 27.0869 18.7737 26.8511C19.9993 26.6374 21.168 26.1614 22.2046 25.4538C23.8523 26.78 25.5074 28.096 27.1551 29.4221C25.3519 31.1135 23.1538 32.2927 20.7761 32.8443C18.1516 33.4807 15.4165 33.4502 12.806 32.7554C10.7414 32.1867 8.81283 31.1843 7.1413 29.8108C5.37224 28.3618 3.92726 26.5359 2.90506 24.4579Z" fill="#319F43"/>
</g>
<defs>
<clipPath id="clip0_119_1053">
<rect x="0.75" y="0.983215" width="31.5255" height="32.5191" fill="white"/>
</clipPath>
</defs>
</svg>
