<svg width="51" height="50" viewBox="0 0 51 50" fill="none" xmlns="http://www.w3.org/2000/svg">
<path d="M25.731 50C39.4429 50 50.5586 38.8071 50.5586 25C50.5586 11.1929 39.4429 0 25.731 0C12.0191 0 0.903442 11.1929 0.903442 25C0.903442 38.8071 12.0191 50 25.731 50Z" fill="#00ADFE"/>
<path opacity="0.3" d="M25.731 45C36.7005 45 45.5931 36.0457 45.5931 25C45.5931 13.9543 36.7005 5 25.731 5C14.7615 5 5.86896 13.9543 5.86896 25C5.86896 36.0457 14.7615 45 25.731 45Z" fill="#356CB6"/>
<path d="M25.731 50C32.1405 50.007 38.3026 47.5095 42.92 43.0333C42.5062 33.6875 41.2896 19.9125 37.6855 11.7083C35.6869 7.1583 31.0027 4.11664 25.731 4.11664C20.4593 4.11664 15.531 7.0333 13.7765 11.7083C10.6607 19.9708 9.32412 33.8875 8.7655 43.2333C13.3567 47.585 19.4258 50.0057 25.731 50Z" fill="#393C54"/>
<path d="M34.0607 13.3875C32.6041 9.85414 29.7241 8.04581 25.8924 7.97081H25.5697C21.7379 8.06248 18.8579 9.87081 17.4014 13.3875C15.8993 17.0166 15.4028 22.4583 17.4014 29.7166C19.3421 36.8 21.7628 38.2541 25.5697 38.3291H25.8924C29.6993 38.2541 32.0993 36.7791 34.0607 29.7166C36.0759 22.4583 35.5628 17.0166 34.0607 13.3875Z" fill="white"/>
<path d="M31.3503 20.3458H33.1752" stroke="#393C54" stroke-width="2.58281" stroke-miterlimit="10" stroke-linecap="round"/>
<path d="M27.5932 35C26.3584 35.1833 25.1037 35.1833 23.869 35C23.3518 34.8625 22.8345 34.5333 22.8345 33.9583C22.8345 33.3833 23.3311 33.0708 23.869 32.9166C25.0949 32.6375 26.3673 32.6375 27.5932 32.9166C28.0938 33.0458 28.6276 33.3833 28.6276 33.9583C28.6276 34.5333 28.1021 34.8666 27.5932 35Z" fill="#393C54"/>
<path d="M33.2 22.5459C32.4119 22.7312 31.5869 22.6776 30.829 22.3917" stroke="#393C54" stroke-width="1.03594" stroke-miterlimit="10" stroke-linecap="round"/>
<path d="M30.4566 25.4167C30.4936 25.0792 30.653 24.7673 30.9042 24.5407C31.1554 24.3142 31.4808 24.1889 31.818 24.1889C32.1552 24.1889 32.4806 24.3142 32.7318 24.5407C32.983 24.7673 33.1423 25.0792 33.1794 25.4167C33.1794 26.1792 31.8097 31.3875 30.8994 31.3875C30.4566 31.3709 30.4566 26.1625 30.4566 25.4167Z" fill="#A7AECE"/>
<path d="M30.4359 17.0833C30.4359 17.4496 30.5804 17.801 30.8377 18.06C31.0949 18.319 31.4438 18.4646 31.8076 18.4646C32.1714 18.4646 32.5203 18.319 32.7776 18.06C33.0348 17.801 33.1794 17.4496 33.1794 17.0833C33.1794 16.325 32.1076 12.95 31.3545 12.95C30.6014 12.95 30.4359 16.3291 30.4359 17.0833Z" fill="#A7AECE"/>
<path d="M18.2869 20.3458H20.1118" stroke="#393C54" stroke-width="2.58281" stroke-miterlimit="10" stroke-linecap="round"/>
<path d="M20.6331 22.4C19.8487 22.6877 18.9962 22.7298 18.1876 22.5208" stroke="#393C54" stroke-width="1.03594" stroke-miterlimit="10" stroke-linecap="round"/>
<path d="M21.0262 17.0833C21.0262 17.4496 20.8817 17.801 20.6245 18.06C20.3672 18.319 20.0183 18.4646 19.6545 18.4646C19.2907 18.4646 18.9418 18.319 18.6845 18.06C18.4273 17.801 18.2828 17.4496 18.2828 17.0833C18.2828 16.325 19.3545 12.95 20.1076 12.95C20.8607 12.95 21.0262 16.3291 21.0262 17.0833Z" fill="#A7AECE"/>
<path d="M21.0055 25.4167C20.9685 25.0792 20.8091 24.7673 20.5579 24.5407C20.3067 24.3142 19.9814 24.1889 19.6442 24.1889C19.3069 24.1889 18.9816 24.3142 18.7304 24.5407C18.4792 24.7673 18.3198 25.0792 18.2828 25.4167C18.2828 26.1792 19.6524 31.3875 20.5628 31.3875C21.0055 31.3709 21.0055 26.1625 21.0055 25.4167Z" fill="#A7AECE"/>
<path d="M27.5558 35.9667C27.5558 36.475 26.7283 36.8875 25.731 36.8875C24.7338 36.8875 23.9062 36.4708 23.9062 35.9667C23.9062 35.7083 24.7338 35.8542 25.731 35.8542C26.7283 35.8542 27.5558 35.7083 27.5558 35.9667Z" fill="#A7AECE"/>
<path opacity="0.2" d="M34.0606 13.3875C33.6313 12.3135 33.0021 11.332 32.2068 10.4959C32.8068 14.7959 32.4675 20.3459 31.6441 27.9375C30.7792 35.8959 26.9144 37.6459 22.9544 37.9375C23.8054 38.2019 24.6914 38.334 25.582 38.3292H25.9048C29.7116 38.2542 32.1116 36.7792 34.073 29.7167C36.0758 22.4584 35.5627 17.0167 34.0606 13.3875Z" fill="#393C54"/>
</svg>
