<svg width="39" height="42" viewBox="0 0 39 42" fill="none" xmlns="http://www.w3.org/2000/svg">
<path d="M15 40.4146H7C4.23857 40.4146 2 38.1761 2 35.4146V17.7144C2 16.2546 2.63783 14.8679 3.74605 13.918L16.246 3.20371C18.1185 1.59876 20.8815 1.59876 22.754 3.20371L35.254 13.918C36.3622 14.8679 37 16.2546 37 17.7144V35.4146C37 38.1761 34.7615 40.4146 32 40.4146H25M15 40.4146V25.4146C15 24.0339 16.1193 22.9146 17.5 22.9146H20H22.5C23.8807 22.9146 25 24.0339 25 25.4146V40.4146M15 40.4146H25" stroke="#9747FF" stroke-width="2.5" stroke-linecap="round" stroke-linejoin="round"/>
</svg>
