<svg width="39" height="51" viewBox="0 0 39 51" fill="none" xmlns="http://www.w3.org/2000/svg">
<path d="M20.5 17.2288V41.2538M20.5 17.2288V8.94519C20.5 8.42684 20.5 8.16764 20.5868 7.94711C20.6633 7.75236 20.7875 7.57996 20.948 7.44574C21.13 7.29371 21.3757 7.21174 21.8675 7.04781L32.8675 3.38116C33.7563 3.08491 34.2007 2.93676 34.5545 3.02559C34.864 3.10334 35.1323 3.29661 35.304 3.56576C35.5 3.87326 35.5 4.34169 35.5 5.27851V13.5622C35.5 14.0805 35.5 14.3397 35.4132 14.5602C35.3367 14.755 35.2125 14.9274 35.052 15.0616C34.87 15.2136 34.6242 15.2956 34.1325 15.4595L23.1325 19.1262C22.2438 19.4224 21.7992 19.5706 21.4455 19.4818C21.136 19.404 20.8677 19.2107 20.696 18.9416C20.5 18.6341 20.5 18.1657 20.5 17.2288ZM20.5 41.2538C20.5 44.7055 16.5825 47.5038 11.75 47.5038C6.9175 47.5038 3 44.7055 3 41.2538C3 37.8018 6.9175 35.0038 11.75 35.0038C16.5825 35.0038 20.5 37.8018 20.5 41.2538Z" stroke="#9747FF" stroke-width="5" stroke-linecap="round" stroke-linejoin="round"/>
</svg>
