<svg width="51" height="51" viewBox="0 0 51 51" fill="none" xmlns="http://www.w3.org/2000/svg">
<path d="M33 13V48M40.5 23H40.525M40.5 30.5H40.525M40.5 38H40.525M38 3L25.5 13L13 3M15 48H36C40.2005 48 42.3005 48 43.905 47.1825C45.3162 46.4635 46.4635 45.3162 47.1825 43.905C48 42.3005 48 40.2005 48 36V25C48 20.7995 48 18.6994 47.1825 17.0951C46.4635 15.6839 45.3162 14.5365 43.905 13.8175C42.3005 13 40.2005 13 36 13H15C10.7996 13 8.6994 13 7.09508 13.8175C5.68385 14.5365 4.5365 15.6839 3.81745 17.0951C3 18.6994 3 20.7995 3 25V36C3 40.2005 3 42.3005 3.81745 43.905C4.5365 45.3162 5.68385 46.4635 7.09508 47.1825C8.6994 48 10.7996 48 15 48Z" stroke="#9747FF" stroke-width="5" stroke-linecap="round" stroke-linejoin="round"/>
</svg>
